HIERARCHY
ROOT Hips
{
	OFFSET -0.001795 -0.223333 0.028219
	CHANNELS 6 Xposition Yposition Zposition Zrotation Yrotation Xrotation 
	JOINT LeftUpLeg
	{
		OFFSET 0.069520 -0.091406 -0.006815
		CHANNELS 3 Zrotation Yrotation Xrotation
		JOINT LeftLeg
		{
			OFFSET 0.034277 -0.375199 -0.004496
			CHANNELS 3 Zrotation Yrotation Xrotation
			JOINT LeftFoot
			{
				OFFSET -0.013596 -0.397961 -0.043693
				CHANNELS 3 Zrotation Yrotation Xrotation
				JOINT LeftToe
				{
					OFFSET 0.026358 -0.055791 0.119288
					CHANNELS 3 Zrotation Yrotation Xrotation
					End Site
					{
						OFFSET 0.000000 0.000000 0.000000
					}
				}
			}
		}
	}
	JOINT RightUpLeg
	{
		OFFSET -0.067670 -0.090522 -0.004320
		CHANNELS 3 Zrotation Yrotation Xrotation
		JOINT RightLeg
		{
			OFFSET -0.038290 -0.382569 -0.008850
			CHANNELS 3 Zrotation Yrotation Xrotation
			JOINT RightFoot
			{
				OFFSET 0.015774 -0.398415 -0.042312
				CHANNELS 3 Zrotation Yrotation Xrotation
				JOINT RightToe
				{
					OFFSET -0.025372 -0.048144 0.123348
					CHANNELS 3 Zrotation Yrotation Xrotation
					End Site
					{
						OFFSET 0.000000 0.000000 0.000000
					}
				}
			}
		}
	}
	JOINT Spine
	{
		OFFSET -0.002533 0.108963 -0.026696
		CHANNELS 3 Zrotation Yrotation Xrotation
		JOINT Spine1
		{
			OFFSET 0.005487 0.135180 0.001092
			CHANNELS 3 Zrotation Yrotation Xrotation
			JOINT Spine2
			{
				OFFSET 0.001457 0.052922 0.025425
				CHANNELS 3 Zrotation Yrotation Xrotation
				JOINT Neck
				{
					OFFSET -0.002778 0.213870 -0.042857
					CHANNELS 3 Zrotation Yrotation Xrotation
					JOINT Head
					{
						OFFSET 0.005152 0.064970 0.051349
						CHANNELS 3 Zrotation Yrotation Xrotation
						End Site
						{
							OFFSET 0.000000 0.000000 0.000000
						}
					}
				}
				JOINT LeftShoulder
				{
					OFFSET 0.078845 0.121749 -0.034090
					CHANNELS 3 Zrotation Yrotation Xrotation
					JOINT LeftArm
					{
						OFFSET 0.090977 0.030469 -0.008868
						CHANNELS 3 Zrotation Yrotation Xrotation
						JOINT LeftForeArm
						{
							OFFSET 0.259612 -0.012772 -0.027456
							CHANNELS 3 Zrotation Yrotation Xrotation
							JOINT LeftHand
							{
								OFFSET 0.249234 0.008986 -0.001171
								CHANNELS 3 Zrotation Yrotation Xrotation
								End Site
								{
									OFFSET 0.000000 0.000000 0.000000
								}
							}
						}
					}
				}
				JOINT RightShoulder
				{
					OFFSET -0.081759 0.118833 -0.038615
					CHANNELS 3 Zrotation Yrotation Xrotation
					JOINT RightArm
					{
						OFFSET -0.096012 0.032551 -0.009143
						CHANNELS 3 Zrotation Yrotation Xrotation
						JOINT RightForeArm
						{
							OFFSET -0.253742 -0.013329 -0.021401
							CHANNELS 3 Zrotation Yrotation Xrotation
							JOINT RightHand
							{
								OFFSET -0.255298 0.007772 -0.005559
								CHANNELS 3 Zrotation Yrotation Xrotation
								End Site
								{
									OFFSET 0.000000 0.000000 0.000000
								}
							}
						}
					}
				}
			}
		}
	}
}
MOTION
Frames: 10
Frame Time: 0.050000
0.000000 0.970634 0.000000 -1.756266 6.364614 7.754796 3.408868 -0.437113 -4.892730 1.944979 0.196509 -8.044548 2.469620 10.924954 18.503527 0.000000 0.000000 0.000000 -1.324667 0.815931 -8.835170 -4.347761 0.234793 -3.262675 0.590024 -4.175728 16.633665 0.000000 0.000000 0.000000 3.531298 -0.041259 -1.327679 0.197188 0.022793 -2.663899 -2.561607 -0.578372 5.450195 4.314252 -0.871029 -18.177818 0.000000 0.000000 0.000000 -3.113004 -28.749718 10.380043 -31.687189 -41.293421 6.337785 -1.295845 -39.796151 1.793642 0.000000 0.000000 0.000000 4.428096 24.421732 9.790935 32.040960 36.966910 5.988069 15.122169 47.778773 8.659908 0.000000 0.000000 0.000000 
-0.000536 0.969701 -0.000595 -1.867209 5.814198 8.340874 2.325159 -0.473107 -5.429264 3.876724 0.154384 -8.207606 3.178932 11.472389 16.708730 0.000000 0.000000 0.000000 -0.989216 0.890558 -9.487823 -4.236114 0.218999 -3.286724 0.585691 -3.837951 15.016065 0.000000 0.000000 0.000000 3.044138 0.041943 -2.489983 0.307981 -0.008626 -3.118553 -3.090035 -0.288814 6.831244 6.079205 -1.523942 -20.952551 0.000000 0.000000 0.000000 -2.636504 -25.518594 9.034513 -36.919138 -37.995732 6.673725 -5.566613 -46.228592 3.888973 0.000000 0.000000 0.000000 4.267380 20.233072 8.021352 36.682701 34.226671 6.272681 24.110149 53.028954 14.563406 0.000000 0.000000 0.000000 
-0.001067 0.969116 -0.000097 -1.557274 7.236448 8.684239 1.878007 -0.479137 -5.457109 4.770887 0.119497 -8.018692 1.220792 8.878842 16.742764 0.000000 0.000000 0.000000 -1.147482 0.873235 -9.444536 -4.883431 0.270222 -3.399295 0.449929 -3.468171 13.666834 0.000000 0.000000 0.000000 3.194071 0.025037 -2.392985 1.105826 -0.325350 -3.486914 -4.688375 -0.470993 6.949605 5.990562 -1.640301 -19.008454 0.000000 0.000000 0.000000 -4.911418 -22.037398 7.822488 -38.313186 -29.684173 4.360723 -26.577865 -56.112453 15.910916 0.000000 0.000000 0.000000 4.931658 16.056728 6.491100 39.631401 24.342244 3.598235 54.707221 61.110481 37.765132 0.000000 0.000000 0.000000 
-0.001374 0.969825 0.000895 -1.177282 7.905075 10.181717 1.449025 -0.575356 -6.593747 5.262873 0.163209 -8.798499 1.843322 9.751981 16.277132 0.000000 0.000000 0.000000 -2.262890 0.853591 -9.957033 -3.664970 0.095515 -4.449423 0.597856 -2.787170 12.660221 0.000000 0.000000 0.000000 3.077866 0.063394 -3.277196 0.856009 -0.169591 -4.277113 -4.343218 -1.132880 8.056652 6.015868 -1.639040 -19.570372 0.000000 0.000000 0.000000 -5.907500 -17.033601 5.944773 -38.473061 -19.424261 1.154264 -66.690914 -59.306234 42.909921 0.000000 0.000000 0.000000 4.559842 10.442533 4.097743 39.154258 15.757055 0.755624 87.425963 53.996172 56.274405 0.000000 0.000000 0.000000 
-0.001765 0.969968 0.002319 -0.989414 8.533927 10.512488 1.181303 -0.548154 -6.253039 5.487760 0.146672 -8.622088 1.466596 9.334462 16.423409 0.000000 0.000000 0.000000 -2.266554 0.914990 -10.938562 -3.648661 0.187683 -3.245872 0.430783 -2.847164 12.068851 0.000000 0.000000 0.000000 2.729732 0.045660 -2.951922 1.411379 -0.364278 -4.824287 -4.635335 -1.431727 8.960552 6.456851 -2.071509 -18.437922 0.000000 0.000000 0.000000 -6.865678 -11.492546 3.710970 -35.648680 -9.832123 -1.634520 -98.472286 -48.839202 57.147423 0.000000 0.000000 0.000000 4.468715 3.572603 1.310045 37.663593 6.824674 -1.934078 106.515475 42.855690 60.159069 0.000000 0.000000 0.000000 
-0.002302 0.970728 0.003610 -0.900940 8.387505 10.673879 0.483919 -0.515257 -5.885122 6.333699 0.161208 -9.080651 1.789933 9.721294 16.180983 0.000000 0.000000 0.000000 -3.072773 0.858062 -10.850224 -2.806529 0.103689 -3.438658 1.100007 -1.553438 12.064340 0.000000 0.000000 0.000000 2.776686 0.010409 -2.370563 1.496761 -0.342476 -5.802935 -4.292073 -1.507309 10.189175 5.411382 -1.353153 -19.531469 0.000000 0.000000 0.000000 -7.552578 -6.884982 1.841303 -32.446396 -0.817913 -3.693789 -115.060806 -35.387655 54.468010 0.000000 0.000000 0.000000 2.896850 -1.325313 -0.602973 35.095517 -0.113532 -3.638502 117.942198 33.100820 57.062712 0.000000 0.000000 0.000000 
-0.003116 0.971465 0.004229 -0.826927 7.966104 10.596053 0.627086 -0.491605 -5.605801 6.160364 0.152688 -8.918161 2.465954 10.766559 16.733930 0.000000 0.000000 0.000000 -3.178111 0.901287 -11.654145 -2.361269 0.168081 -1.759646 1.066079 -1.636908 11.903225 0.000000 0.000000 0.000000 3.003513 0.004266 -2.348462 0.958007 -0.093461 -6.486170 -4.164053 -1.135312 11.459978 5.529468 -1.413802 -19.700621 0.000000 0.000000 0.000000 -6.234198 -0.897382 -0.448943 -29.944373 3.548679 -4.390696 -123.759825 -25.353765 45.968279 0.000000 0.000000 0.000000 1.069559 -6.410910 -2.405966 32.959841 -5.125016 -4.590671 124.456916 25.993892 51.522374 0.000000 0.000000 0.000000 
-0.004353 0.972640 0.003545 -0.744643 8.223156 10.255121 0.731359 -0.458377 -5.223777 5.765469 0.190890 -9.351054 2.398065 10.816184 17.211248 0.000000 0.000000 0.000000 -3.213280 0.886134 -11.576129 -2.503183 0.249492 -0.663047 1.199926 -1.262074 11.664811 0.000000 0.000000 0.000000 3.076755 -0.025022 -1.853290 1.159390 -0.165612 -6.563781 -4.761755 -0.344254 11.957455 5.411813 -1.254997 -19.486788 0.000000 0.000000 0.000000 -4.865470 1.134038 -1.123934 -28.545298 5.158628 -4.493635 -129.681986 -22.067557 44.224635 0.000000 0.000000 0.000000 0.275361 -8.717166 -3.190353 31.882898 -7.144307 -4.854631 128.054493 24.284713 52.871496 0.000000 0.000000 0.000000 
-0.006211 0.973982 0.001316 -0.663709 7.784906 9.651213 0.788086 -0.458839 -5.223641 5.679486 0.117670 -8.322224 2.776987 11.192095 16.789198 0.000000 0.000000 0.000000 -2.972984 0.897415 -11.453452 -2.457024 0.324301 0.741761 0.929135 -1.754894 11.289436 0.000000 0.000000 0.000000 3.078312 -0.047674 -1.376351 1.157140 -0.170991 -6.558801 -4.741791 0.373311 12.708280 5.052624 -1.021345 -19.339659 0.000000 0.000000 0.000000 -3.661761 1.603731 -1.130959 -28.717639 3.994605 -4.348819 -132.901367 -24.072035 51.449502 0.000000 0.000000 0.000000 -0.574126 -8.707937 -3.113496 31.224716 -6.017459 -4.544957 129.798130 25.014162 56.743843 0.000000 0.000000 0.000000 
-0.008733 0.974765 -0.002269 -0.371920 8.747825 9.341453 1.256817 -0.475314 -5.401424 4.645918 0.130524 -8.093471 2.708376 11.202173 16.741923 0.000000 0.000000 0.000000 -2.769504 0.892400 -11.385305 -2.826106 0.414088 1.456480 0.456839 -2.473327 10.990547 0.000000 0.000000 0.000000 2.903833 -0.124663 -0.026543 1.443174 -0.253890 -6.849640 -5.226864 0.547023 12.964455 5.249212 -1.033676 -19.411770 0.000000 0.000000 0.000000 -2.872122 1.496970 -0.996783 -27.948876 1.485004 -3.736855 -136.445008 -26.572104 60.463112 0.000000 0.000000 0.000000 -0.425195 -8.418115 -3.044369 30.573595 -4.871737 -4.226370 132.868513 24.929211 61.092380 0.000000 0.000000 0.000000 
